# xmcd
#
# Track frame offsets:
#	150
#	12170
#	22752
#	34290
#	47307
#	57650
#	70062
#	82077
#	95004
#	107242
#	123357
#	142372
#	153997
#	167877
#	176240
#	190567
#	202287
#	215387
#	228522
#	240702
#	255327
#	266317
#	278012
#	292810
#	304255
#	317997
#	328597
#
# Disc length: 4583 seconds
#
# Revision: 0
# Processed by: cddbd v1.4b42PL0 Copyright (c) Steve Scherf et al.
# Submitted via: EasyCDDAExtractor 4.5.0.1
#
DISCID=8a11e51b
DTITLE=Various Artist - Atlantic Soul - Disc 1
DYEAR=1900
DGENRE=R&B
TTITLE0=Soul Man
TTITLE1=Sweet Soul Music
TTITLE2=In The Midnight Hour
TTITLE3=Green Onions
TTITLE4=Think
TTITLE5=Everybody Needs Somebody To Love
TTITLE6=(Sittin On) The Dock Of The Bay
TTITLE7=When A Man Loves A Woman
TTITLE8=Under The Boardwalk
TTITLE9=I Say A Little Prayer
TTITLE10=Could It Be I'm Falling In Love
TTITLE11=Save The Last Dance For Me
TTITLE12=Knock On Wood
TTITLE13=Yakety Yak
TTITLE14=What's I Say (Part 1)
TTITLE15=Sweets For My Sweet
TTITLE16=B.A.B.Y.
TTITLE17=Spanish Harlem
TTITLE18=Baby I Love You
TTITLE19=I've Got Dreams To Remember
TTITLE20=Land Of 1000 Dances
TTITLE21=Hallelujah I Love Her So
TTITLE22=When Something Is Wrong With My Baby
TTITLE23=These Arms Of Mine
TTITLE24=My Special Prayer
TTITLE25=Soul Finger
TTITLE26=A Thin Line Between Love And Hate
EXTD=
EXTT0=
EXTT1=
EXTT2=
EXTT3=
EXTT4=
EXTT5=
EXTT6=
EXTT7=
EXTT8=
EXTT9=
EXTT10=
EXTT11=
EXTT12=
EXTT13=
EXTT14=
EXTT15=
EXTT16=
EXTT17=
EXTT18=
EXTT19=
EXTT20=
EXTT21=
EXTT22=
EXTT23=
EXTT24=
EXTT25=
EXTT26=
PLAYORDER=
